/* XPM */
static char *c[] = {
"32 32 3 1",
"  c None",
". c gold",
"+ c orange",
"                                ",
"                                ",
"                                ",
"           ..........           ",
"        ...++++++++...          ",
"      ..++++++++++++..          ",
"     .+++++++++++++++++.        ",
"    .++++++++++++++++++.        ",
"   .++++++++++++++++++++.       ",
"   .++++++++++++++++++++.       ",
"  .++++++++++++++++++++++.      ",
"  .++++++++++++++++++++++.      ",
"  .++++++++++++++++++++++.      ",
" .++++++++++++++++++++++++.     ",
" .++++++++++++++++++++++++.     ",
" .++++++++++++++++++++++++.     ",
" .++++++++++++++++++++++++.     ",
" .++++++++++++++++++++++++.     ",
" .++++++++++++++++++++++++.     ",
"  .++++++++++++++++++++++.      ",
"  .++++++++++++++++++++++.      ",
"  .++++++++++++++++++++++.      ",
"   .++++++++++++++++++++.       ",
"   .++++++++++++++++++++.       ",
"    .++++++++++++++++++.        ",
"     .+++++++++++++++++.        ",
"      ..++++++++++++..          ",
"        ...++++++++...          ",
"           ..........           ",
"                                ",
"                                ",
"                                "};
